<?xml version="1.0" standalone="no"?>
<!DOCTYPE svg PUBLIC "-//W3C//DTD SVG 1.1//EN" 
  "http://www.w3.org/Graphics/SVG/1.1/DTD/svg11.dtd">
<svg width="1024" height="1024" viewBox="0 0 1024 1024"
     xmlns="http://www.w3.org/2000/svg" version="1.1">
<desc>'PaintBottle.blend', Cylinder.005, (Blender 2.72 (sub 0))</desc>
<polygon stroke="black" stroke-width="1" fill="rgb(204, 204, 204)" fill-opacity="0.25" points="252.000,417.000 136.000,417.000 141.000,486.000 246.000,486.000 " />
<polygon stroke="black" stroke-width="1" fill="rgb(204, 204, 204)" fill-opacity="0.25" points="120.000,480.000 119.000,424.000 13.000,424.000 12.000,480.000 " />
<polygon stroke="black" stroke-width="1" fill="rgb(204, 204, 204)" fill-opacity="0.25" points="119.000,424.000 113.000,357.000 18.000,357.000 13.000,424.000 " />
<polygon stroke="black" stroke-width="1" fill="rgb(204, 204, 204)" fill-opacity="0.25" points="113.000,357.000 104.000,279.000 27.000,279.000 18.000,357.000 " />
<polygon stroke="black" stroke-width="1" fill="rgb(204, 204, 204)" fill-opacity="0.25" points="104.000,279.000 93.000,187.000 39.000,187.000 27.000,279.000 " />
<polygon stroke="black" stroke-width="1" fill="rgb(204, 204, 204)" fill-opacity="0.25" points="93.000,187.000 80.000,84.000 51.000,84.000 39.000,187.000 " />
<polygon stroke="black" stroke-width="1" fill="rgb(204, 204, 204)" fill-opacity="0.25" points="725.000,1023.000 725.000,501.000 682.000,501.000 682.000,1023.000 " />
<polygon stroke="black" stroke-width="1" fill="rgb(204, 204, 204)" fill-opacity="0.25" points="682.000,1023.000 682.000,501.000 640.000,501.000 640.000,1023.000 " />
<polygon stroke="black" stroke-width="1" fill="rgb(204, 204, 204)" fill-opacity="0.25" points="640.000,1023.000 640.000,501.000 597.000,501.000 597.000,1023.000 " />
<polygon stroke="black" stroke-width="1" fill="rgb(204, 204, 204)" fill-opacity="0.25" points="597.000,1023.000 597.000,501.000 555.000,501.000 555.000,1023.000 " />
<polygon stroke="black" stroke-width="1" fill="rgb(204, 204, 204)" fill-opacity="0.25" points="555.000,1023.000 555.000,501.000 512.000,501.000 512.000,1023.000 " />
<polygon stroke="black" stroke-width="1" fill="rgb(204, 204, 204)" fill-opacity="0.25" points="512.000,1023.000 512.000,501.000 469.000,501.000 469.000,1023.000 " />
<polygon stroke="black" stroke-width="1" fill="rgb(204, 204, 204)" fill-opacity="0.25" points="469.000,1023.000 469.000,501.000 427.000,501.000 427.000,1023.000 " />
<polygon stroke="black" stroke-width="1" fill="rgb(204, 204, 204)" fill-opacity="0.25" points="427.000,1023.000 427.000,501.000 384.000,501.000 384.000,1023.000 " />
<polygon stroke="black" stroke-width="1" fill="rgb(204, 204, 204)" fill-opacity="0.25" points="384.000,1023.000 384.000,501.000 342.000,501.000 342.000,1023.000 " />
<polygon stroke="black" stroke-width="1" fill="rgb(204, 204, 204)" fill-opacity="0.25" points="342.000,1023.000 342.000,501.000 299.000,501.000 299.000,1023.000 " />
<polygon stroke="black" stroke-width="1" fill="rgb(204, 204, 204)" fill-opacity="0.25" points="138.000,217.000 164.000,232.000 194.000,240.000 224.000,240.000 254.000,232.000 280.000,217.000 302.000,195.000 317.000,169.000 325.000,139.000 325.000,109.000 317.000,79.000 302.000,53.000 280.000,31.000 254.000,16.000 224.000,8.000 194.000,8.000 164.000,16.000 138.000,31.000 116.000,53.000 101.000,79.000 93.000,109.000 93.000,139.000 101.000,169.000 116.000,195.000 " />
<polygon stroke="black" stroke-width="1" fill="rgb(204, 204, 204)" fill-opacity="0.25" points="299.000,1023.000 299.000,501.000 256.000,501.000 256.000,1023.000 " />
<polygon stroke="black" stroke-width="1" fill="rgb(204, 204, 204)" fill-opacity="0.25" points="214.000,1023.000 214.000,501.000 171.000,501.000 171.000,1023.000 " />
<polygon stroke="black" stroke-width="1" fill="rgb(204, 204, 204)" fill-opacity="0.25" points="171.000,1023.000 171.000,501.000 129.000,501.000 129.000,1023.000 " />
<polygon stroke="black" stroke-width="1" fill="rgb(204, 204, 204)" fill-opacity="0.25" points="129.000,1023.000 129.000,501.000 86.000,501.000 86.000,1023.000 " />
<polygon stroke="black" stroke-width="1" fill="rgb(204, 204, 204)" fill-opacity="0.25" points="86.000,1023.000 86.000,501.000 44.000,501.000 44.000,1023.000 " />
<polygon stroke="black" stroke-width="1" fill="rgb(204, 204, 204)" fill-opacity="0.25" points="44.000,1023.000 44.000,501.000 1.000,501.000 1.000,1023.000 " />
<polygon stroke="black" stroke-width="1" fill="rgb(204, 204, 204)" fill-opacity="0.25" points="1023.000,1023.000 1023.000,501.000 981.000,501.000 981.000,1023.000 " />
<polygon stroke="black" stroke-width="1" fill="rgb(204, 204, 204)" fill-opacity="0.25" points="981.000,1023.000 981.000,501.000 938.000,501.000 938.000,1023.000 " />
<polygon stroke="black" stroke-width="1" fill="rgb(204, 204, 204)" fill-opacity="0.25" points="938.000,1023.000 938.000,501.000 895.000,501.000 895.000,1023.000 " />
<polygon stroke="black" stroke-width="1" fill="rgb(204, 204, 204)" fill-opacity="0.25" points="895.000,1023.000 895.000,501.000 853.000,501.000 853.000,1023.000 " />
<polygon stroke="black" stroke-width="1" fill="rgb(204, 204, 204)" fill-opacity="0.25" points="853.000,1023.000 853.000,501.000 810.000,501.000 810.000,1023.000 " />
<polygon stroke="black" stroke-width="1" fill="rgb(204, 204, 204)" fill-opacity="0.25" points="810.000,1023.000 810.000,501.000 768.000,501.000 768.000,1023.000 " />
<polygon stroke="black" stroke-width="1" fill="rgb(204, 204, 204)" fill-opacity="0.25" points="768.000,1023.000 768.000,501.000 725.000,501.000 725.000,1023.000 " />
<polygon stroke="black" stroke-width="1" fill="rgb(204, 204, 204)" fill-opacity="0.25" points="256.000,1023.000 256.000,501.000 214.000,501.000 214.000,1023.000 " />
<polygon stroke="black" stroke-width="1" fill="rgb(204, 204, 204)" fill-opacity="0.25" points="223.000,332.000 230.000,357.000 243.000,380.000 261.000,398.000 284.000,411.000 309.000,418.000 335.000,418.000 360.000,411.000 383.000,398.000 401.000,380.000 414.000,357.000 421.000,332.000 421.000,306.000 414.000,281.000 401.000,258.000 383.000,240.000 360.000,227.000 335.000,220.000 309.000,220.000 284.000,227.000 261.000,240.000 243.000,258.000 230.000,281.000 223.000,306.000 " />

</svg>
