<?xml version="1.0" standalone="no"?>
<!DOCTYPE svg PUBLIC "-//W3C//DTD SVG 1.1//EN" 
  "http://www.w3.org/Graphics/SVG/1.1/DTD/svg11.dtd">
<svg width="1024" height="1024" viewBox="0 0 1024 1024"
     xmlns="http://www.w3.org/2000/svg" version="1.1">
<desc>'PaintBottle.blend', Cube.003, (Blender 2.72 (sub 0))</desc>
<polygon stroke="black" stroke-width="1" fill="rgb(204, 204, 204)" fill-opacity="0.25" points="139.000,370.000 153.000,379.000 185.000,379.000 199.000,370.000 199.000,268.000 185.000,259.000 153.000,259.000 139.000,268.000 " />
<polygon stroke="black" stroke-width="1" fill="rgb(204, 204, 204)" fill-opacity="0.25" points="682.000,112.000 682.000,6.000 553.000,6.000 553.000,112.000 " />
<polygon stroke="black" stroke-width="1" fill="rgb(204, 204, 204)" fill-opacity="0.25" points="502.000,6.000 400.000,6.000 400.000,112.000 502.000,112.000 " />
<polygon stroke="black" stroke-width="1" fill="rgb(204, 204, 204)" fill-opacity="0.25" points="836.000,112.000 836.000,6.000 734.000,6.000 734.000,112.000 " />
<polygon stroke="black" stroke-width="1" fill="rgb(204, 204, 204)" fill-opacity="0.25" points="734.000,112.000 734.000,6.000 682.000,6.000 682.000,112.000 " />
<polygon stroke="black" stroke-width="1" fill="rgb(204, 204, 204)" fill-opacity="0.25" points="836.000,6.000 836.000,112.000 888.000,112.000 888.000,6.000 " />
<polygon stroke="black" stroke-width="1" fill="rgb(204, 204, 204)" fill-opacity="0.25" points="400.000,112.000 400.000,6.000 348.000,6.000 348.000,112.000 " />
<polygon stroke="black" stroke-width="1" fill="rgb(204, 204, 204)" fill-opacity="0.25" points="502.000,6.000 502.000,112.000 553.000,112.000 553.000,6.000 " />
<polygon stroke="black" stroke-width="1" fill="rgb(204, 204, 204)" fill-opacity="0.25" points="888.000,6.000 888.000,112.000 1016.000,112.000 1016.000,6.000 " />

</svg>
