<?xml version="1.0" standalone="no"?>
<!DOCTYPE svg PUBLIC "-//W3C//DTD SVG 1.1//EN" 
  "http://www.w3.org/Graphics/SVG/1.1/DTD/svg11.dtd">
<svg width="1024" height="1024" viewBox="0 0 1024 1024"
     xmlns="http://www.w3.org/2000/svg" version="1.1">
<desc>'sign-post.blend', Cylinder, (Blender 2.78 (sub 0))</desc>
<polygon stroke="black" stroke-width="1" fill="rgb(204, 204, 204)" fill-opacity="0.25" points="1024.000,419.000 1024.000,0.000 1001.000,0.000 1001.000,419.000 " />
<polygon stroke="black" stroke-width="1" fill="rgb(204, 204, 204)" fill-opacity="0.25" points="1001.000,419.000 1001.000,0.000 980.000,0.000 980.000,419.000 " />
<polygon stroke="black" stroke-width="1" fill="rgb(204, 204, 204)" fill-opacity="0.25" points="980.000,419.000 980.000,0.000 957.000,0.000 957.000,419.000 " />
<polygon stroke="black" stroke-width="1" fill="rgb(204, 204, 204)" fill-opacity="0.25" points="957.000,419.000 957.000,0.000 936.000,0.000 936.000,419.000 " />
<polygon stroke="black" stroke-width="1" fill="rgb(204, 204, 204)" fill-opacity="0.25" points="936.000,419.000 936.000,0.000 914.000,0.000 914.000,419.000 " />
<polygon stroke="black" stroke-width="1" fill="rgb(204, 204, 204)" fill-opacity="0.25" points="914.000,419.000 914.000,0.000 892.000,0.000 892.000,419.000 " />
<polygon stroke="black" stroke-width="1" fill="rgb(204, 204, 204)" fill-opacity="0.25" points="892.000,419.000 892.000,0.000 870.000,0.000 870.000,419.000 " />
<polygon stroke="black" stroke-width="1" fill="rgb(204, 204, 204)" fill-opacity="0.25" points="870.000,419.000 870.000,0.000 848.000,0.000 848.000,419.000 " />
<polygon stroke="black" stroke-width="1" fill="rgb(204, 204, 204)" fill-opacity="0.25" points="848.000,419.000 848.000,0.000 826.000,0.000 826.000,419.000 " />
<polygon stroke="black" stroke-width="1" fill="rgb(204, 204, 204)" fill-opacity="0.25" points="826.000,419.000 826.000,0.000 805.000,0.000 805.000,419.000 " />
<polygon stroke="black" stroke-width="1" fill="rgb(204, 204, 204)" fill-opacity="0.25" points="805.000,419.000 805.000,0.000 782.000,0.000 782.000,419.000 " />
<polygon stroke="black" stroke-width="1" fill="rgb(204, 204, 204)" fill-opacity="0.25" points="782.000,419.000 782.000,0.000 761.000,0.000 761.000,419.000 " />
<polygon stroke="black" stroke-width="1" fill="rgb(204, 204, 204)" fill-opacity="0.25" points="761.000,419.000 761.000,0.000 738.000,0.000 738.000,419.000 " />
<polygon stroke="black" stroke-width="1" fill="rgb(204, 204, 204)" fill-opacity="0.25" points="738.000,419.000 738.000,0.000 717.000,0.000 717.000,419.000 " />
<polygon stroke="black" stroke-width="1" fill="rgb(204, 204, 204)" fill-opacity="0.25" points="717.000,419.000 717.000,0.000 694.000,0.000 694.000,419.000 " />
<polygon stroke="black" stroke-width="1" fill="rgb(204, 204, 204)" fill-opacity="0.25" points="694.000,419.000 694.000,0.000 673.000,0.000 673.000,419.000 " />
<polygon stroke="black" stroke-width="1" fill="rgb(204, 204, 204)" fill-opacity="0.25" points="673.000,419.000 673.000,0.000 652.000,0.000 652.000,419.000 " />
<polygon stroke="black" stroke-width="1" fill="rgb(204, 204, 204)" fill-opacity="0.25" points="652.000,419.000 652.000,0.000 629.000,0.000 629.000,419.000 " />
<polygon stroke="black" stroke-width="1" fill="rgb(204, 204, 204)" fill-opacity="0.25" points="629.000,419.000 629.000,0.000 608.000,0.000 608.000,419.000 " />
<polygon stroke="black" stroke-width="1" fill="rgb(204, 204, 204)" fill-opacity="0.25" points="608.000,419.000 608.000,0.000 585.000,0.000 585.000,419.000 " />
<polygon stroke="black" stroke-width="1" fill="rgb(204, 204, 204)" fill-opacity="0.25" points="585.000,419.000 585.000,0.000 564.000,0.000 564.000,419.000 " />
<polygon stroke="black" stroke-width="1" fill="rgb(204, 204, 204)" fill-opacity="0.25" points="564.000,419.000 564.000,0.000 541.000,0.000 541.000,419.000 " />
<polygon stroke="black" stroke-width="1" fill="rgb(204, 204, 204)" fill-opacity="0.25" points="131.000,44.000 122.000,29.000 110.000,17.000 95.000,8.000 78.000,4.000 62.000,5.000 44.000,8.000 29.000,17.000 16.000,29.000 8.000,44.000 3.000,61.000 3.000,79.000 8.000,95.000 16.000,110.000 29.000,123.000 44.000,131.000 61.000,136.000 78.000,136.000 95.000,131.000 110.000,123.000 122.000,110.000 131.000,95.000 135.000,79.000 135.000,61.000 " />
<polygon stroke="black" stroke-width="1" fill="rgb(204, 204, 204)" fill-opacity="0.25" points="541.000,419.000 541.000,0.000 518.000,0.000 518.000,419.000 " />
<polygon stroke="black" stroke-width="1" fill="rgb(204, 204, 204)" fill-opacity="0.25" points="518.000,419.000 518.000,0.000 497.000,0.000 497.000,419.000 " />
<polygon stroke="black" stroke-width="1" fill="rgb(204, 204, 204)" fill-opacity="0.25" points="3.000,211.000 8.000,228.000 16.000,243.000 29.000,255.000 44.000,264.000 61.000,268.000 78.000,268.000 95.000,264.000 110.000,255.000 122.000,243.000 131.000,228.000 135.000,211.000 135.000,194.000 131.000,177.000 122.000,162.000 110.000,149.000 95.000,141.000 78.000,136.000 61.000,136.000 44.000,141.000 29.000,149.000 16.000,162.000 8.000,177.000 3.000,194.000 " />

</svg>
