<?xml version="1.0" standalone="no"?>
<!DOCTYPE svg PUBLIC "-//W3C//DTD SVG 1.1//EN" 
  "http://www.w3.org/Graphics/SVG/1.1/DTD/svg11.dtd">
<svg width="1024" height="1024" viewBox="0 0 1024 1024"
     xmlns="http://www.w3.org/2000/svg" version="1.1">
<desc>'sign-post.blend', Cylinder.002, (Blender 2.78 (sub 0))</desc>
<polygon stroke="black" stroke-width="1" fill="rgb(204, 204, 204)" fill-opacity="0.25" points="477.000,421.000 477.000,0.000 462.000,0.000 462.000,421.000 " />
<polygon stroke="black" stroke-width="1" fill="rgb(204, 204, 204)" fill-opacity="0.25" points="462.000,421.000 462.000,0.000 448.000,0.000 448.000,421.000 " />
<polygon stroke="black" stroke-width="1" fill="rgb(204, 204, 204)" fill-opacity="0.25" points="448.000,421.000 448.000,0.000 433.000,0.000 433.000,421.000 " />
<polygon stroke="black" stroke-width="1" fill="rgb(204, 204, 204)" fill-opacity="0.25" points="433.000,421.000 433.000,0.000 419.000,0.000 419.000,421.000 " />
<polygon stroke="black" stroke-width="1" fill="rgb(204, 204, 204)" fill-opacity="0.25" points="419.000,421.000 419.000,0.000 403.000,0.000 403.000,421.000 " />
<polygon stroke="black" stroke-width="1" fill="rgb(204, 204, 204)" fill-opacity="0.25" points="403.000,421.000 403.000,0.000 388.000,0.000 388.000,421.000 " />
<polygon stroke="black" stroke-width="1" fill="rgb(204, 204, 204)" fill-opacity="0.25" points="388.000,421.000 388.000,0.000 375.000,0.000 375.000,421.000 " />
<polygon stroke="black" stroke-width="1" fill="rgb(204, 204, 204)" fill-opacity="0.25" points="375.000,421.000 375.000,0.000 360.000,0.000 360.000,421.000 " />
<polygon stroke="black" stroke-width="1" fill="rgb(204, 204, 204)" fill-opacity="0.25" points="360.000,421.000 360.000,0.000 345.000,0.000 345.000,421.000 " />
<polygon stroke="black" stroke-width="1" fill="rgb(204, 204, 204)" fill-opacity="0.25" points="345.000,421.000 345.000,0.000 330.000,0.000 330.000,421.000 " />
<polygon stroke="black" stroke-width="1" fill="rgb(204, 204, 204)" fill-opacity="0.25" points="330.000,421.000 330.000,0.000 316.000,0.000 316.000,421.000 " />
<polygon stroke="black" stroke-width="1" fill="rgb(204, 204, 204)" fill-opacity="0.25" points="316.000,421.000 316.000,0.000 301.000,0.000 301.000,421.000 " />
<polygon stroke="black" stroke-width="1" fill="rgb(204, 204, 204)" fill-opacity="0.25" points="301.000,421.000 301.000,0.000 287.000,0.000 287.000,421.000 " />
<polygon stroke="black" stroke-width="1" fill="rgb(204, 204, 204)" fill-opacity="0.25" points="287.000,421.000 287.000,0.000 272.000,0.000 272.000,421.000 " />
<polygon stroke="black" stroke-width="1" fill="rgb(204, 204, 204)" fill-opacity="0.25" points="272.000,421.000 272.000,0.000 257.000,0.000 257.000,421.000 " />
<polygon stroke="black" stroke-width="1" fill="rgb(204, 204, 204)" fill-opacity="0.25" points="257.000,421.000 257.000,0.000 243.000,0.000 243.000,421.000 " />
<polygon stroke="black" stroke-width="1" fill="rgb(204, 204, 204)" fill-opacity="0.25" points="243.000,421.000 243.000,0.000 228.000,0.000 228.000,421.000 " />
<polygon stroke="black" stroke-width="1" fill="rgb(204, 204, 204)" fill-opacity="0.25" points="228.000,421.000 228.000,0.000 213.000,0.000 213.000,421.000 " />
<polygon stroke="black" stroke-width="1" fill="rgb(204, 204, 204)" fill-opacity="0.25" points="213.000,421.000 213.000,0.000 198.000,0.000 198.000,421.000 " />
<polygon stroke="black" stroke-width="1" fill="rgb(204, 204, 204)" fill-opacity="0.25" points="198.000,421.000 198.000,0.000 184.000,0.000 184.000,421.000 " />
<polygon stroke="black" stroke-width="1" fill="rgb(204, 204, 204)" fill-opacity="0.25" points="184.000,421.000 184.000,0.000 169.000,0.000 169.000,421.000 " />
<polygon stroke="black" stroke-width="1" fill="rgb(204, 204, 204)" fill-opacity="0.25" points="169.000,421.000 169.000,0.000 154.000,0.000 154.000,421.000 " />
<polygon stroke="black" stroke-width="1" fill="rgb(204, 204, 204)" fill-opacity="0.25" points="122.000,160.000 108.000,150.000 94.000,140.000 79.000,136.000 60.000,136.000 44.000,140.000 30.000,150.000 17.000,160.000 8.000,176.000 4.000,192.000 4.000,209.000 8.000,225.000 17.000,239.000 30.000,253.000 44.000,261.000 60.000,265.000 79.000,265.000 94.000,261.000 108.000,253.000 122.000,239.000 130.000,225.000 135.000,209.000 135.000,192.000 130.000,176.000 " />
<polygon stroke="black" stroke-width="1" fill="rgb(204, 204, 204)" fill-opacity="0.25" points="154.000,421.000 154.000,0.000 140.000,0.000 140.000,421.000 " />
<polygon stroke="black" stroke-width="1" fill="rgb(204, 204, 204)" fill-opacity="0.25" points="140.000,421.000 140.000,0.000 125.000,0.000 125.000,421.000 " />
<polygon stroke="black" stroke-width="1" fill="rgb(204, 204, 204)" fill-opacity="0.25" points="94.000,131.000 108.000,122.000 122.000,111.000 130.000,97.000 135.000,80.000 135.000,64.000 130.000,44.000 122.000,32.000 108.000,18.000 94.000,11.000 79.000,6.000 60.000,6.000 44.000,11.000 30.000,18.000 17.000,32.000 8.000,44.000 4.000,64.000 4.000,80.000 8.000,97.000 17.000,111.000 30.000,122.000 44.000,131.000 60.000,136.000 79.000,136.000 " />

</svg>
