<?xml version="1.0" standalone="no"?>
<!DOCTYPE svg PUBLIC "-//W3C//DTD SVG 1.1//EN" 
  "http://www.w3.org/Graphics/SVG/1.1/DTD/svg11.dtd">
<svg width="1024" height="1024" viewBox="0 0 1024 1024"
     xmlns="http://www.w3.org/2000/svg" version="1.1">
<desc>'sign-post.blend', Cylinder.005, (Blender 2.78 (sub 0))</desc>
<polygon stroke="black" stroke-width="1" fill="rgb(204, 204, 204)" fill-opacity="0.25" points="930.000,851.000 987.000,851.000 987.000,833.000 930.000,833.000 " />
<polygon stroke="black" stroke-width="1" fill="rgb(204, 204, 204)" fill-opacity="0.25" points="930.000,833.000 987.000,833.000 987.000,815.000 930.000,815.000 " />
<polygon stroke="black" stroke-width="1" fill="rgb(204, 204, 204)" fill-opacity="0.25" points="930.000,815.000 987.000,815.000 987.000,798.000 930.000,798.000 " />
<polygon stroke="black" stroke-width="1" fill="rgb(204, 204, 204)" fill-opacity="0.25" points="930.000,798.000 987.000,798.000 987.000,780.000 930.000,780.000 " />
<polygon stroke="black" stroke-width="1" fill="rgb(204, 204, 204)" fill-opacity="0.25" points="930.000,780.000 987.000,780.000 987.000,764.000 930.000,764.000 " />
<polygon stroke="black" stroke-width="1" fill="rgb(204, 204, 204)" fill-opacity="0.25" points="930.000,764.000 987.000,764.000 987.000,746.000 930.000,746.000 " />
<polygon stroke="black" stroke-width="1" fill="rgb(204, 204, 204)" fill-opacity="0.25" points="930.000,746.000 987.000,746.000 987.000,728.000 930.000,728.000 " />
<polygon stroke="black" stroke-width="1" fill="rgb(204, 204, 204)" fill-opacity="0.25" points="930.000,728.000 987.000,728.000 987.000,711.000 930.000,711.000 " />
<polygon stroke="black" stroke-width="1" fill="rgb(204, 204, 204)" fill-opacity="0.25" points="930.000,711.000 987.000,711.000 987.000,693.000 930.000,693.000 " />
<polygon stroke="black" stroke-width="1" fill="rgb(204, 204, 204)" fill-opacity="0.25" points="930.000,693.000 987.000,693.000 987.000,675.000 930.000,675.000 " />
<polygon stroke="black" stroke-width="1" fill="rgb(204, 204, 204)" fill-opacity="0.25" points="930.000,675.000 987.000,675.000 987.000,657.000 930.000,657.000 " />
<polygon stroke="black" stroke-width="1" fill="rgb(204, 204, 204)" fill-opacity="0.25" points="930.000,657.000 987.000,657.000 987.000,640.000 930.000,640.000 " />
<polygon stroke="black" stroke-width="1" fill="rgb(204, 204, 204)" fill-opacity="0.25" points="930.000,640.000 987.000,640.000 987.000,623.000 930.000,623.000 " />
<polygon stroke="black" stroke-width="1" fill="rgb(204, 204, 204)" fill-opacity="0.25" points="930.000,623.000 987.000,623.000 987.000,605.000 930.000,605.000 " />
<polygon stroke="black" stroke-width="1" fill="rgb(204, 204, 204)" fill-opacity="0.25" points="930.000,605.000 987.000,605.000 987.000,587.000 930.000,587.000 " />
<polygon stroke="black" stroke-width="1" fill="rgb(204, 204, 204)" fill-opacity="0.25" points="930.000,587.000 987.000,587.000 987.000,569.000 930.000,569.000 " />
<polygon stroke="black" stroke-width="1" fill="rgb(204, 204, 204)" fill-opacity="0.25" points="930.000,569.000 987.000,569.000 987.000,552.000 930.000,552.000 " />
<polygon stroke="black" stroke-width="1" fill="rgb(204, 204, 204)" fill-opacity="0.25" points="930.000,552.000 987.000,552.000 987.000,534.000 930.000,534.000 " />
<polygon stroke="black" stroke-width="1" fill="rgb(204, 204, 204)" fill-opacity="0.25" points="930.000,534.000 987.000,534.000 987.000,516.000 930.000,516.000 " />
<polygon stroke="black" stroke-width="1" fill="rgb(204, 204, 204)" fill-opacity="0.25" points="930.000,516.000 987.000,516.000 987.000,500.000 930.000,500.000 " />
<polygon stroke="black" stroke-width="1" fill="rgb(204, 204, 204)" fill-opacity="0.25" points="930.000,500.000 987.000,500.000 987.000,482.000 930.000,482.000 " />
<polygon stroke="black" stroke-width="1" fill="rgb(204, 204, 204)" fill-opacity="0.25" points="930.000,482.000 987.000,482.000 987.000,465.000 930.000,465.000 " />
<polygon stroke="black" stroke-width="1" fill="rgb(204, 204, 204)" fill-opacity="0.25" points="1017.000,864.000 1017.000,851.000 1013.000,836.000 1005.000,824.000 996.000,815.000 984.000,808.000 969.000,804.000 955.000,804.000 941.000,808.000 930.000,815.000 920.000,824.000 913.000,836.000 909.000,851.000 909.000,864.000 913.000,877.000 920.000,890.000 930.000,900.000 941.000,907.000 955.000,910.000 969.000,910.000 984.000,907.000 996.000,900.000 1005.000,890.000 1013.000,877.000 " />
<polygon stroke="black" stroke-width="1" fill="rgb(204, 204, 204)" fill-opacity="0.25" points="930.000,465.000 987.000,465.000 987.000,446.000 930.000,446.000 " />
<polygon stroke="black" stroke-width="1" fill="rgb(204, 204, 204)" fill-opacity="0.25" points="930.000,446.000 987.000,446.000 987.000,429.000 930.000,429.000 " />
<polygon stroke="black" stroke-width="1" fill="rgb(204, 204, 204)" fill-opacity="0.25" points="909.000,971.000 913.000,984.000 920.000,997.000 930.000,1007.000 941.000,1014.000 955.000,1017.000 969.000,1017.000 984.000,1014.000 996.000,1007.000 1005.000,997.000 1013.000,984.000 1017.000,971.000 1017.000,957.000 1013.000,944.000 1005.000,931.000 996.000,921.000 984.000,914.000 969.000,910.000 955.000,910.000 941.000,914.000 930.000,921.000 920.000,931.000 913.000,944.000 909.000,957.000 " />

</svg>
